<svg height="512" viewBox="0 0 56 57" width="512" xmlns="http://www.w3.org/2000/svg"><g id="Page-1" fill="none" fill-rule="evenodd"><g id="001---House-Clean" fill="rgb(0,0,0)" fill-rule="nonzero"><path id="Shape" d="m26.759 19.357c-1.081154.4582121-1.9417879 1.318846-2.4 2.4-.0572759.1430841-.195878.2368965-.35.2368965s-.2927241-.0938124-.35-.2368965c-.4582121-1.081154-1.318846-1.9417879-2.4-2.4-.1430841-.0572759-.2368965-.195878-.2368965-.35s.0938124-.2927241.2368965-.35c1.081154-.4582121 1.9417879-1.318846 2.4-2.4.0572759-.1430841.195878-.2368965.35-.2368965s.2927241.0938124.35.2368965c.4582121 1.081154 1.318846 1.9417879 2.4 2.4.1430841.0572759.2368965.195878.2368965.35s-.0938124.2927241-.2368965.35z"/><path id="Shape" d="m10 4c-.55228475 0-1-.44771525-1-1v-2c0-.55228475.44771525-1 1-1 .5522847 0 1 .44771525 1 1v2c0 .55228475-.4477153 1-1 1z"/><path id="Shape" d="m10 10c-.55228475 0-1-.44771525-1-1v-2c0-.55228475.44771525-1 1-1 .5522847 0 1 .44771525 1 1v2c0 .55228475-.4477153 1-1 1z"/><path id="Shape" d="m14 6h-2c-.5522847 0-1-.44771525-1-1s.4477153-1 1-1h2c.5522847 0 1 .44771525 1 1s-.4477153 1-1 1z"/><path id="Shape" d="m8 6h-2c-.55228475 0-1-.44771525-1-1s.44771525-1 1-1h2c.55228475 0 1 .44771525 1 1s-.44771525 1-1 1z"/><path id="Shape" d="m53.5 28.5c-.4043959-.0000863-.7689341-.2437275-.923678-.6173454-.1547439-.373618-.0692299-.8036603.216678-1.0896546l1.5-1.5c.3923789-.3789722 1.0160848-.3735524 1.4018186.0121814s.3911536 1.0094397.0121814 1.4018186l-1.5 1.5c-.1874927.1875494-.4418052.2929434-.707.293z"/><path id="Shape" d="m49 33c-.4043959-.0000863-.7689341-.2437275-.923678-.6173454-.1547439-.373618-.0692299-.8036603.216678-1.0896546l1.5-1.5c.3923789-.3789722 1.0160848-.3735524 1.4018186.0121814s.3911536 1.0094397.0121814 1.4018186l-1.5 1.5c-.1874927.1875494-.4418052.2929434-.707.293z"/><path id="Shape" d="m55 33c-.2651948-.0000566-.5195073-.1054506-.707-.293l-1.5-1.5c-.3789722-.3923789-.3735524-1.0160848.0121814-1.4018186s1.0094397-.3911536 1.4018186-.0121814l1.5 1.5c.2859079.2859943.3714219.7160366.216678 1.0896546-.1547439.3736179-.5192821.6172591-.923678.6173454z"/><path id="Shape" d="m50.5 28.5c-.2651948-.0000566-.5195073-.1054506-.707-.293l-1.5-1.5c-.3789722-.3923789-.3735524-1.0160848.0121814-1.4018186s1.0094397-.3911536 1.4018186-.0121814l1.5 1.5c.2859079.2859943.3714219.7160366.216678 1.0896546-.1547439.3736179-.5192821.6172591-.923678.6173454z"/><rect id="Rectangle-path" height="23" rx="1" width="7" y="34"/><path id="Shape" d="m43 3h-3c-.5522847 0-1 .44771525-1 1v4.175l5 4.317v-8.492c0-.55228475-.4477153-1-1-1z"/><path id="Shape" d="m15 19c0 .5522847-.4477153 1-1 1h-2v14.081c1.8736305.2232861 3.6481599.9635678 5.125 2.138.5715079.4555607 1.2022807.8313331 1.875 1.117v-1.036c-.0570831-4.927859 3.779076-9.0254942 8.7-9.293 2.4382199-.0846905 4.8061158.8254259 6.559942 2.521357s2.7428856 4.0319543 2.740058 6.471643v8.029l7-2.329v-21.7h-10c-.5522847 0-1-.4477153-1-1s.4477153-1 1-1h13.31l-10.017-8.652-8.643-7.466c-.3753915-.32409798-.9316085-.32409798-1.307 0l-18.66 16.118h5.317c.5522847 0 1 .4477153 1 1zm3-1c2.7600532-.0033061 4.9966939-2.2399468 5-5 0-.5522847.4477153-1 1-1s1 .4477153 1 1c.0033061 2.7600532 2.2399468 4.9966939 5 5 .5522847 0 1 .4477153 1 1s-.4477153 1-1 1c-2.7600532.0033061-4.9966939 2.2399468-5 5 0 .5522847-.4477153 1-1 1s-1-.4477153-1-1c-.0033061-2.7600532-2.2399468-4.9966939-5-5-.5522847 0-1-.4477153-1-1s.4477153-1 1-1z"/><path id="Shape" d="m33.61 45c.3217569.0002592.6413625-.0524453.946-.156l.444-.144v-8.7c0-3.8659932-3.1340068-7-7-7s-7 3.1340068-7 7v1.9c.3969379.0632828.7980627.0967099 1.2.1h5.23c2.106326.0057264 4.0568984 1.1104821 5.145 2.914.0200569.0321809.0380918.0655788.054.1.7182289 1.2019888.8774005 2.6571677.436 3.986z"/><path id="Shape" d="m55.651 41.191c-.0175806-.023127-.0339364-.04716-.049-.072-.4597031-.5570139-1.2138334-.7753147-1.9-.55l-8.312 2.772-9 3-1.192.4c-.5114949.1730482-1.0480275.2605557-1.588.259h-8.89c-1.5794886.0006376-3.1235342.468235-4.438 1.344l-.724.486c-.4583963.3081749-1.0798251.1863963-1.388-.272s-.1863963-1.0798251.272-1.388l.73-.49c1.6434681-1.0942832 3.5735529-1.6787357 5.548-1.68h6.089c.6706606-.8846683.6996673-2.0993269.072-3.015-.01-.018-.022-.041-.033-.066-.728637-1.1889777-2.021523-1.9152799-3.416-1.919h-5.232c-2.2992529-.0028916-4.5296206-.7851243-6.327-2.219-1.3871549-1.1050559-3.0970528-1.7272199-4.87-1.772h-.003-.007c-.065 0-.13-.008-.2-.008h-1.793v19.9990002l24.3-.0000002c1.1004717.0003021 2.1798304-.3020568 3.12-.874l18.74-11.41c.4201208-.2528756.7133638-.6719819.8069627-1.1533205.093599-.4813386-.0212191-.9797946-.3159627-1.3716795z"/></g></g></svg>